<!-- Generated by IcoMoon.io -->
<svg version="1.1" xmlns="http://www.w3.org/2000/svg" width="109" height="32" viewBox="0 0 109 32">
<path d="M4.888 31.041c-1.81 0-3.066-0.369-3.786-1.115-0.815-1.044-1.201-2.358-1.080-3.675v-22.429c-0.038-0.521 0.036-1.044 0.217-1.534s0.466-0.936 0.834-1.307c0.704-0.652 1.638-1.001 2.598-0.97h8.204l1.080 5.818h-5.976c-0.37 0-0.555 0.194-0.555 0.601v18.23c0 0.407 0.185 0.601 0.555 0.601h5.976l-1.119 5.818-6.949-0.039zM21.092 27.162l-0.564 3.879h-6.277l5.625-31.030h6.657l5.606 31.030h-6.248l-0.564-3.879h-4.233zM21.773 22.236h2.92l-1.47-10.967-1.45 10.967zM46.113 0.010c0.51-0.039 1.021 0.033 1.5 0.211s0.913 0.456 1.274 0.817c0.642 0.764 0.972 1.74 0.925 2.735v14.856c0.003 0.555-0.062 1.109-0.195 1.648-0.126 0.488-0.37 0.937-0.71 1.309-0.382 0.395-0.852 0.694-1.372 0.873-0.692 0.232-1.42 0.34-2.151 0.32h-5.324v8.262h-6.19v-31.030h12.243zM40.060 5.45v12.189h3.095c0.253 0 0.418-0.049 0.487-0.145 0.087-0.149 0.125-0.323 0.107-0.494v-10.958c0-0.398-0.185-0.592-0.555-0.592h-3.134zM64.672 0.010l1.528 5.818h-4.146v25.212h-6.355v-25.212h-4.165l1.625-5.818h11.513zM71.339 27.162l-0.555 3.879h-6.277l5.586-31.030h6.667l5.625 31.030h-6.238l-0.555-3.879h-4.253zM72.040 22.313h2.92l-1.47-11.045-1.45 11.045zM84.127 0.010h6.229v31.030h-6.229v-31.030zM92.944 0.010h5.927l3.182 12.451v-12.451h6.404v31.030h-6.404l-3.348-12.965v12.965h-5.761v-31.030z"></path>
</svg>
