<!-- Generated by IcoMoon.io -->
<svg version="1.1" xmlns="http://www.w3.org/2000/svg" width="120" height="32" viewBox="0 0 120 32">
<path d="M31.876 4.068c0.281 0.31 0.362 0.55 0.251 0.73s-0.352 0.16-0.713 0c-0.348-0.183-0.732-0.289-1.125-0.31-0.343 0.007-0.677-0.115-0.934-0.34-0.728-0.721-1.601-1.28-2.562-1.64-0.994-0.382-2.041-0.611-3.105-0.68-1.067-0.080-2.14-0.030-3.195 0.15-0.98 0.157-1.936 0.439-2.844 0.84-1.073 0.499-2.085 1.12-3.015 1.85-1.178 0.878-2.293 1.837-3.336 2.87-1.161 1.116-2.248 2.305-3.256 3.56-1.020 1.286-1.947 2.643-2.773 4.060-0.803 1.333-1.475 2.74-2.010 4.2-0.475 1.318-0.739 2.701-0.784 4.1-0.021 0.338 0.075 0.673 0.271 0.95 0.184 0.232 0.427 0.411 0.703 0.52 0.304 0.109 0.622 0.173 0.945 0.19 0.305 0.015 0.61 0.015 0.914 0 1.030-0.106 2.042-0.338 3.015-0.69 1.016-0.357 2.006-0.781 2.964-1.27 0.978-0.5 1.902-1.030 2.773-1.59 0.884-0.55 1.688-1.090 2.412-1.61s1.367-1 1.919-1.39 0.955-0.7 1.236-0.88c0.42-0.304 0.889-0.534 1.387-0.68 0.358-0.045 0.701-0.168 1.005-0.36l1.286-0.82c0.301-0.17 0.482-0.22 0.533-0.15s0 0.23-0.261 0.46c-1.075 1.14-2.201 2.23-3.376 3.25s-2.371 2-3.587 3c-0.74 0.577-1.508 1.118-2.301 1.62-0.914 0.591-1.86 1.132-2.834 1.62-0.977 0.483-1.984 0.904-3.015 1.26-0.913 0.324-1.874 0.497-2.844 0.51-0.89 0.032-1.778-0.125-2.603-0.46-0.68-0.285-1.278-0.736-1.738-1.31-0.456-0.559-0.797-1.201-1.005-1.89-0.194-0.714-0.285-1.451-0.271-2.19 0.048-1.478 0.34-2.937 0.864-4.32 0.563-1.565 1.283-3.069 2.15-4.49 0.919-1.512 1.961-2.947 3.115-4.29 1.141-1.328 2.38-2.568 3.708-3.71 1.193-1.024 2.478-1.938 3.839-2.73 1.133-0.701 2.366-1.227 3.658-1.56 1.241-0.257 2.501-0.404 3.768-0.44 2.626-0.084 5.232 0.49 7.577 1.67 1.195 0.608 2.276 1.416 3.195 2.39zM20.481 19.118c-0.199 0.178-0.411 0.342-0.633 0.49-0.090 0-0.131 0-0.121-0.050 0.037-0.136 0.091-0.267 0.161-0.39 0.079-0.139 0.149-0.283 0.211-0.43 0.188-0.461 0.326-0.94 0.412-1.43 0.033-0.369 0.181-0.718 0.422-1l0.734-0.86c0.332-0.39 0.724-0.82 1.186-1.28 0.491-0.483 1.008-0.941 1.547-1.37 0.554-0.438 1.149-0.819 1.779-1.14 0.123-0.065 0.257-0.103 0.396-0.114s0.277 0.008 0.408 0.054c0.29 0.084 0.562 0.22 0.804 0.4 0.219 0.163 0.401 0.371 0.533 0.61 0.056 0.085 0.085 0.184 0.085 0.285s-0.030 0.2-0.085 0.285c-0.339 0.631-0.715 1.242-1.125 1.83-0.502 0.7-1.005 1.44-1.497 2.23s-0.945 1.59-1.357 2.4c-0.368 0.714-0.648 1.469-0.834 2.25 0.7-0.398 1.353-0.871 1.949-1.41 0.683-0.61 1.357-1.28 2.010-2s1.316-1.46 2.010-2.21l1.779-2.080c0.071-0.104 0.174-0.183 0.294-0.222s0.25-0.039 0.369 0.002c0.277 0.078 0.53 0.226 0.734 0.43 0.214 0.222 0.375 0.488 0.472 0.78 0.055 0.126 0.084 0.262 0.084 0.4s-0.029 0.274-0.084 0.4c-0.6 1.139-1.075 2.339-1.417 3.58 0.856-0.5 1.678-1.054 2.462-1.66 0.794-0.61 1.417-1.080 1.879-1.41 0.14-0.096 0.292-0.173 0.452-0.23l0.502-0.15c0.209-0.063 0.414-0.14 0.613-0.23 0.234-0.1 0.516-0.24 0.844-0.42 0.432-0.23 0.663-0.3 0.683-0.23s-0.11 0.27-0.422 0.57c-0.563 0.56-1.156 1.16-1.799 1.79s-1.286 1.25-1.949 1.85c-0.663 0.6-1.316 1.16-2.010 1.68-0.56 0.469-1.166 0.881-1.809 1.23-0.091 0.055-0.194 0.089-0.3 0.099s-0.213-0.003-0.313-0.039c-0.236-0.064-0.46-0.166-0.663-0.3-0.21-0.132-0.394-0.301-0.543-0.5-0.128-0.156-0.202-0.349-0.211-0.55-0.040-0.406-0.033-0.816 0.020-1.22-0.663 0.69-1.357 1.34-2.080 2-0.763 0.643-1.576 1.225-2.432 1.74-0.281 0.134-0.595 0.186-0.904 0.15-0.403-0.029-0.801-0.106-1.186-0.23-0.365-0.124-0.705-0.31-1.005-0.55-0.138-0.114-0.249-0.258-0.324-0.421s-0.112-0.34-0.108-0.519c-0.025-0.437 0.033-0.875 0.171-1.29 0.151-0.486 0.329-0.963 0.533-1.43 0.221-0.5 0.462-1 0.734-1.47l0.744-1.37c-0.482 0.46-0.955 0.91-1.417 1.37s-0.955 0.92-1.387 1.3zM39.915 15.268c-0.633 0.74-1.226 1.38-1.728 1.94-0.32 0.408-0.754 0.714-1.246 0.88-0.211 0.013-0.422 0.013-0.633 0-0.235 0.013-0.464 0.085-0.663 0.21-0.305 0.145-0.589 0.33-0.844 0.55-0.243 0.205-0.498 0.396-0.764 0.57-0.181 0.12-0.211 0.070-0.101-0.13s0.523-0.74 1.206-1.6c1.105-1.373 2.171-2.707 3.195-4 0.954-1.209 1.843-2.467 2.663-3.77 0.061-0.079 0.145-0.137 0.24-0.168s0.197-0.031 0.293-0.002c0.236 0.053 0.463 0.14 0.673 0.26 0.249 0.117 0.471 0.284 0.653 0.49 0.181 0.21 0.261 0.38 0.231 0.53-0.131 0.41-0.241 0.81-0.342 1.2s-0.191 0.8-0.271 1.2c0.775-0.536 1.667-0.879 2.603-1 0.495-0.048 0.994 0.046 1.437 0.27 0.464 0.22 0.891 0.51 1.266 0.86 0.345 0.313 0.64 0.678 0.874 1.080 0.189 0.281 0.29 0.612 0.291 0.95-0.041 0.813-0.336 1.592-0.844 2.23-0.516 0.651-1.137 1.212-1.839 1.66 0.813-0.261 1.6-0.596 2.351-1 0.633-0.36 1.166-0.68 1.608-1s0.824-0.55 1.136-0.76c0.269-0.203 0.582-0.34 0.914-0.4 0.127-0.012 0.255-0.012 0.382 0 0.112-0.004 0.221-0.031 0.322-0.080 0.145-0.068 0.28-0.156 0.402-0.26l0.653-0.54c0.181-0.17 0.291-0.23 0.342-0.17s0.050 0.12 0 0.17c-0.577 0.919-1.251 1.774-2.010 2.55-0.8 0.838-1.678 1.598-2.623 2.27-0.93 0.661-1.923 1.231-2.964 1.7-0.978 0.436-2.019 0.716-3.085 0.83-0.234 0.020-0.469-0.004-0.693-0.070-0.341-0.083-0.676-0.187-1.005-0.31-0.314-0.115-0.615-0.267-0.894-0.45-0.224-0.134-0.414-0.319-0.553-0.54l-0.161 0.42c-0.301 0.84-0.613 1.7-0.914 2.57s-0.643 1.75-1.005 2.63c-0.362 0.865-0.771 1.71-1.226 2.53-0.436 0.801-0.955 1.555-1.547 2.25-0.070 0.073-0.157 0.127-0.254 0.157s-0.2 0.034-0.299 0.013c-0.248-0.052-0.471-0.186-0.633-0.38-0.22-0.25-0.384-0.543-0.482-0.86-0.114-0.396-0.145-0.812-0.090-1.22 0.271-2.042 0.851-4.031 1.718-5.9 0.933-2.067 1.969-4.086 3.105-6.050 0.121-0.23 0.261-0.46 0.402-0.69 0.132-0.224 0.277-0.441 0.432-0.65l0.322-0.97zM46.687 14.318c-1.075 0.029-2.107 0.424-2.924 1.12-0.831 0.702-1.558 1.516-2.16 2.42-0.127 0.507-0.248 0.997-0.362 1.47-0.121 0.47-0.251 1-0.402 1.46l0.221-0.11c0.616-0.272 1.202-0.607 1.748-1 0.659-0.442 1.278-0.94 1.849-1.49 0.581-0.541 1.078-1.165 1.477-1.85 0.373-0.607 0.565-1.308 0.553-2.020zM54.264 20.908c0.928-0.033 1.844-0.215 2.713-0.54 0.897-0.331 1.761-0.742 2.582-1.23 0.826-0.494 1.618-1.042 2.372-1.64 0.754-0.6 1.437-1.16 2.010-1.7 0.059-0.062 0.131-0.111 0.211-0.144s0.165-0.048 0.252-0.046c0.121 0 0.1 0.18-0.080 0.46-0.286 0.473-0.499 0.985-0.633 1.52-0.041 0.332-0.166 0.648-0.362 0.92-0.259 0.311-0.534 0.608-0.824 0.89-0.369 0.363-0.766 0.697-1.186 1-0.442 0.34-0.914 0.67-1.397 1-0.457 0.296-0.946 0.541-1.457 0.73-0.444 0.186-0.905 0.33-1.377 0.43-0.501 0.12-1.013 0.19-1.527 0.21-0.401-0.016-0.796-0.104-1.166-0.26-0.455-0.183-0.881-0.428-1.266-0.73-0.371-0.296-0.708-0.631-1.005-1-0.257-0.277-0.422-0.626-0.472-1-0.133-1.184-0.054-2.383 0.231-3.54 0.266-1.053 0.682-2.064 1.236-3 0.524-0.891 1.204-1.68 2.010-2.33 0.789-0.644 1.687-1.142 2.653-1.47 0.349-0.114 0.726-0.114 1.075 0 0.411 0.132 0.803 0.317 1.166 0.55 0.342 0.222 0.65 0.491 0.914 0.8 0.21 0.225 0.338 0.514 0.362 0.82-0.007 0.349-0.096 0.692-0.261 1-0.199 0.404-0.424 0.795-0.673 1.17-0.261 0.4-0.563 0.82-0.874 1.25l-0.904 1.22c-0.281 0.36-0.482 0.48-0.613 0.38s-0.11-0.37 0-0.8c0.101-0.28 0.171-0.5 0.211-0.66 0.036-0.144 0.057-0.292 0.060-0.44 0.002-0.123-0.018-0.245-0.060-0.36-0.042-0.131-0.075-0.265-0.1-0.4-0.019-0.195 0.002-0.393 0.060-0.58 0.071-0.218 0.155-0.432 0.251-0.64 0.1-0.23 0.201-0.47 0.301-0.73 0.104-0.258 0.181-0.526 0.231-0.8-0.773 0.313-1.462 0.803-2.010 1.43-0.661 0.729-1.216 1.547-1.648 2.43-0.469 0.926-0.807 1.912-1.005 2.93-0.208 0.956-0.208 1.944 0 2.9zM65.519 13.908c0.65-0.639 1.345-1.23 2.080-1.77 0.493-0.369 1.053-0.64 1.648-0.8 0.465-0.121 0.957-0.082 1.397 0.11 0.507 0.243 0.961 0.582 1.336 1l0.583-0.87c0.072-0.091 0.17-0.158 0.282-0.192s0.23-0.033 0.341 0.002c0.304 0.047 0.593 0.164 0.844 0.34 0.25 0.16 0.46 0.376 0.613 0.63 0.071 0.090 0.109 0.201 0.109 0.315s-0.039 0.225-0.109 0.315c-0.253 0.35-0.482 0.718-0.683 1.1-0.332 0.58-0.683 1.25-1.005 2s-0.703 1.49-1.005 2.23c-0.263 0.574-0.465 1.174-0.603 1.79-0.017 0.062-0.017 0.128 0 0.19v0.23c0.522-0.298 1.022-0.632 1.497-1 0.553-0.4 1.105-0.81 1.638-1.23l1.517-1.2 1.085-0.88c0.167-0.129 0.349-0.236 0.543-0.32 0.147-0.065 0.298-0.122 0.452-0.17l0.502-0.18c0.217-0.081 0.423-0.189 0.613-0.32 0.151-0.1 0.261-0.13 0.322-0.090s0 0.14-0.090 0.32c-1.005 1.32-2.010 2.6-3.175 3.85-0.312 0.33-0.653 0.71-1.005 1.14-0.383 0.426-0.799 0.821-1.246 1.18-0.423 0.34-0.893 0.616-1.397 0.82-0.478 0.19-1.006 0.211-1.497 0.060-0.704-0.099-1.345-0.455-1.799-1-0.279-0.5-0.348-1.090-0.191-1.64-0.475 0.692-0.985 1.36-1.527 2-0.416 0.525-0.919 0.974-1.487 1.33-1.738 1-3.015 0.67-3.909-1.1-0.199-0.437-0.301-0.911-0.301-1.39-0.016-0.658 0.093-1.313 0.322-1.93 0.273-0.797 0.641-1.56 1.095-2.27 0.631-0.954 1.373-1.83 2.211-2.61v0.010zM66.051 20.158c0.991-1.073 1.943-2.203 2.854-3.39 0.904-1.2 1.769-2.4 2.582-3.62-0.433-0.028-0.863 0.084-1.226 0.32-0.502 0.299-0.983 0.633-1.437 1-0.472 0.37-0.904 0.73-1.296 1.090-0.28 0.233-0.542 0.487-0.784 0.76-0.315 0.36-0.65 0.81-1.005 1.35-0.392 0.55-0.764 1.11-1.105 1.7-0.321 0.523-0.596 1.071-0.824 1.64-0.195 0.347-0.249 0.755-0.151 1.14 0.151 0.23 0.392 0.17 0.744-0.17l1.648-1.82zM94.791 16.388c0.134-0.073 0.275-0.134 0.422-0.18l0.402-0.11 0.493-0.17c0.19-0.080 0.432-0.19 0.713-0.34s0.522-0.28 0.573-0.21 0 0.23-0.312 0.51c-0.512 0.63-1.115 1.32-1.829 2.060s-1.457 1.41-2.221 2.060c-0.714 0.61-1.47 1.171-2.261 1.68-0.585 0.405-1.249 0.685-1.949 0.82-0.815 0.127-1.65 0.026-2.411-0.29-0.645-0.216-1.197-0.642-1.568-1.21-0.264-0.476-0.412-1.007-0.432-1.55-0.051-0.596-0.051-1.194 0-1.79 0.027-0.243 0.124-0.474 0.279-0.663s0.361-0.331 0.595-0.407c0.389-0.177 0.768-0.374 1.136-0.59 0.43-0.258 0.84-0.549 1.225-0.87 0.386-0.344 0.739-0.723 1.055-1.13 0.328-0.351 0.579-0.767 0.733-1.22-0.826 0.256-1.594 0.67-2.261 1.22-0.691 0.528-1.342 1.107-1.949 1.73-0.627 0.636-1.22 1.304-1.779 2-0.603 0.75-1.156 1.46-1.668 2.15s-0.945 1.29-1.296 1.83c-0.352 0.54-0.593 0.87-0.693 1-0.083 0.143-0.196 0.266-0.331 0.36s-0.29 0.16-0.453 0.19c-0.314 0.053-0.635 0.038-0.943-0.045s-0.592-0.231-0.836-0.435c-0.090-0.061-0.155-0.152-0.182-0.257s-0.017-0.216 0.031-0.313l3.597-6.47c-0.692 0.66-1.42 1.281-2.181 1.86-0.768 0.585-1.574 1.119-2.412 1.6-0.311 0.2-0.613 0.39-0.924 0.55s-0.543 0.29-0.703 0.37c-0.161 0.080-0.251 0.080-0.251 0s0.141-0.23 0.422-0.51c0.505-0.491 0.972-1.019 1.397-1.58 0.279-0.367 0.505-0.771 0.673-1.2 0.187-0.493 0.511-0.923 0.935-1.24l2.010-1.81c0.764-0.71 1.588-1.53 2.472-2.45 0.921-0.989 1.758-2.053 2.502-3.18 0.482-1 1.005-2 1.396-3.070s0.835-2.080 1.246-3.080c0.070-0.18 0.221-0.24 0.452-0.19 0.269 0.068 0.515 0.206 0.713 0.4 0.253 0.226 0.47 0.489 0.643 0.78 0.205 0.291 0.294 0.647 0.251 1-0.025 0.416-0.11 0.827-0.251 1.22-0.131 0.4-0.296 0.788-0.493 1.16-0.166 0.351-0.365 0.686-0.593 1-0.201 0.27-0.371 0.48-0.503 0.63-0.221 0.51-0.422 1-0.593 1.32s-0.331 0.71-0.512 1-0.362 0.68-0.533 1c-0.17 0.32-0.402 0.78-0.653 1.26 0.616-0.382 1.261-0.716 1.929-1 0.701-0.269 1.451-0.385 2.2-0.34 0.276 0.015 0.544 0.094 0.784 0.23 0.322 0.153 0.62 0.352 0.884 0.59 0.264 0.237 0.485 0.518 0.653 0.83 0.16 0.286 0.206 0.621 0.131 0.94-0.153 0.526-0.387 1.025-0.694 1.48-0.333 0.518-0.724 0.998-1.165 1.43-0.452 0.42-0.947 0.792-1.477 1.11-0.492 0.333-1.017 0.614-1.567 0.84-0.055 0.399 0.038 0.804 0.261 1.14 0.231 0.38 0.412 0.69 0.542 0.92 0.671-0.142 1.313-0.396 1.899-0.75 0.704-0.41 1.387-0.87 2.071-1.35s1.286-0.94 1.848-1.37c0.406-0.343 0.844-0.648 1.307-0.91v0.010zM101.181 15.548c-0.305 0.439-0.642 0.856-1.005 1.25-0.413 0.43-0.853 0.834-1.316 1.21-0.436 0.368-0.899 0.702-1.386 1-0.389 0.26-0.817 0.459-1.267 0.59 0 0.281 0.020 0.562 0.061 0.84 0.026 0.247 0.112 0.484 0.251 0.69 0.072 0.147 0.188 0.269 0.332 0.349s0.308 0.116 0.472 0.101c0.351-0.033 0.693-0.135 1.005-0.3 0.645-0.328 1.263-0.705 1.848-1.13 0.645-0.454 1.267-0.941 1.859-1.46 0.612-0.54 1.206-1.090 1.779-1.66s1.105-1.11 1.587-1.62c0.201-0.2 0.352-0.27 0.442-0.21s0.081 0.19 0 0.37c-0.241 0.531-0.453 1.075-0.633 1.63-0.141 0.46-0.261 0.84-0.361 1.15-0.104 0.303-0.253 0.59-0.442 0.85-0.278 0.42-0.583 0.821-0.915 1.2-0.397 0.463-0.827 0.897-1.287 1.3-0.479 0.427-1.012 0.79-1.587 1.080-0.571 0.292-1.19 0.479-1.828 0.55-0.681 0.081-1.373-0.008-2.010-0.26-0.842-0.274-1.556-0.843-2.009-1.6-0.401-0.709-0.619-1.506-0.633-2.32-0.024-0.876 0.106-1.748 0.381-2.58 0.252-0.826 0.589-1.623 1.005-2.38 0.213-0.384 0.455-0.752 0.723-1.1 0.31-0.414 0.645-0.808 1.005-1.18 0.339-0.365 0.708-0.699 1.106-1 0.319-0.248 0.696-0.413 1.095-0.48 0.467-0.005 0.926 0.109 1.336 0.33 0.431 0.186 0.831 0.435 1.186 0.74 0.264 0.268 0.415 0.625 0.422 1 0.027 0.365-0.031 0.731-0.171 1.070-0.148 0.347-0.327 0.682-0.532 1l-0.513 0.98zM96.971 16.868c0.619-0.599 1.187-1.248 1.699-1.94 0.529-0.703 0.962-1.473 1.286-2.29-0.267 0.183-0.507 0.401-0.713 0.65-0.241 0.278-0.463 0.572-0.664 0.88-0.211 0.3-0.402 0.6-0.573 0.89s-0.322 0.53-0.422 0.71l-0.613 1.1zM118.203 15.868c0.413-0.3 0.643-0.43 0.694-0.36s-0.091 0.28-0.422 0.66c-0.613 0.74-1.246 1.48-1.91 2.21s-1.326 1.43-2.009 2.080c-0.634 0.616-1.305 1.194-2.010 1.73-0.611 0.472-1.289 0.856-2.009 1.14-0.201 0.535-0.558 0.999-1.025 1.332s-1.023 0.52-1.598 0.538c-0.584 0.019-1.165-0.083-1.708-0.3-0.586-0.223-1.12-0.563-1.568-1-0.142-0.154-0.27-0.322-0.381-0.5-0.125-0.198-0.221-0.413-0.281-0.64-0.069-0.209-0.088-0.432-0.061-0.65 0.018-0.108 0.057-0.212 0.115-0.305s0.136-0.173 0.227-0.235c0.136-0.11 0.307-0.17 0.482-0.17 0.211 0 0.443 0 0.684 0s0.472 0 0.693 0.080l0.513 0.090c0.361 0 0.693 0 1.005 0 0.313 0.002 0.627-0.021 0.935-0.070 0.080-0.381 0.121-0.77 0.12-1.16v-1.070c0-0.69 0-1.38 0-2.080s-0.1-1.4-0.171-2.11c-0.922 0.992-1.898 1.934-2.924 2.82-1.065 0.91-2.010 1.7-2.854 2.36-0.362 0.28-0.523 0.32-0.503 0.13 0.061-0.258 0.181-0.498 0.352-0.7 0.176-0.231 0.328-0.479 0.452-0.74 0.126-0.257 0.237-0.52 0.332-0.79l0.241-0.68c0.061-0.178 0.168-0.337 0.312-0.46 0.332-0.33 0.884-1 1.668-1.86 0.938-1.16 1.776-2.398 2.502-3.7 0.047-0.085 0.12-0.153 0.209-0.195s0.188-0.054 0.284-0.035c0.246 0.034 0.483 0.119 0.693 0.25 0.232 0.141 0.443 0.309 0.633 0.5 0.151 0.122 0.262 0.286 0.322 0.47 0.231 1.35 0.442 2.74 0.632 4.19 0.189 1.416 0.222 2.847 0.101 4.27 0.541-0.274 1.046-0.609 1.507-1 0.522-0.42 1.005-0.85 1.528-1.28s1.005-0.84 1.437-1.22c0.387-0.33 0.812-0.612 1.266-0.84 0.282-0.12 0.533-0.22 0.764-0.3 0.265-0.088 0.514-0.22 0.733-0.39v-0.010z"></path>
</svg>
