<!-- Generated by IcoMoon.io -->
<svg version="1.1" xmlns="http://www.w3.org/2000/svg" width="121" height="32" viewBox="0 0 121 32">
<path d="M19.368 26.889c-0.163 0.063-0.336 0.097-0.51 0.1l-1.931 0.060h-1.661c-1.363 1.513-2.991 2.768-4.803 3.705-1.292 0.638-2.721 0.953-4.163 0.916-0.887-0.023-1.765-0.185-2.602-0.478-0.762-0.261-1.466-0.666-2.071-1.195-0.557-0.477-0.998-1.073-1.291-1.743-0.293-0.691-0.397-1.447-0.3-2.191 0.066-1.111 0.459-2.178 1.131-3.067 0.528-0.655 1.217-1.163 2.001-1.474 0.712-0.265 1.473-0.373 2.231-0.319 0.595 0.034 1.183 0.141 1.751 0.319 0.356 0.148 0.654 0.407 0.851 0.737 0.159 0.26 0.225 0.565 0.19 0.866-0.023 0.13-0.072 0.255-0.145 0.366s-0.166 0.207-0.276 0.282c-0.137 0.074-0.29 0.113-0.445 0.113s-0.309-0.039-0.445-0.113c-0.52-0.243-1.112-0.285-1.661-0.12-0.471 0.157-0.887 0.444-1.201 0.827-0.308 0.395-0.511 0.861-0.59 1.354-0.1 0.495-0.062 1.009 0.11 1.484 0.192 0.497 0.544 0.917 1.001 1.195 0.605 0.353 1.301 0.519 2.001 0.478 1.581-0.106 3.077-0.754 4.233-1.832-0.58 0-0.941-0.179-1.081-0.438-0.075-0.132-0.115-0.281-0.115-0.433s0.040-0.301 0.115-0.433c0.206-0.357 0.49-0.663 0.831-0.896 0.372-0.268 0.812-0.427 1.271-0.458h0.731c0.31 0 0.66 0 1.061 0 1.507-1.696 2.904-3.485 4.183-5.358 1.441-2.091 2.842-4.203 4.253-6.364s2.702-4.292 4.003-6.384c1.301-2.091 2.612-3.984 3.843-5.617 0.281-0.379 0.696-0.639 1.161-0.727 0.402-0.093 0.823-0.054 1.201 0.11 0.17 0.080 0.321 0.196 0.444 0.338s0.213 0.309 0.267 0.489c0.056 0.224 0.060 0.457 0.014 0.683s-0.144 0.438-0.284 0.622c-1.051 1.623-2.081 3.406-3.112 5.358s-2.001 3.924-2.852 5.906c-0.851 1.982-1.681 3.904-2.322 5.746-0.601 1.6-1.099 3.237-1.491 4.9-0.296 1.121-0.431 2.278-0.4 3.436 0.070 0.876 0.39 1.305 1.001 1.305 0.274-0.010 0.544-0.064 0.801-0.159 0.343-0.119 0.678-0.262 1.001-0.428 0.348-0.193 0.682-0.409 1.001-0.647 0.329-0.232 0.637-0.492 0.921-0.777l1.291-1.305c0.376-0.403 0.73-0.825 1.061-1.265 0.079-0.128 0.189-0.235 0.32-0.31s0.279-0.116 0.43-0.119c0.311-0.024 0.623 0.038 0.901 0.179 0.261 0.118 0.473 0.322 0.6 0.578 0.058 0.128 0.076 0.271 0.051 0.41s-0.092 0.267-0.191 0.367l-1.241 1.484c-0.52 0.627-1.181 1.335-2.001 2.131-0.52 0.488-1.001 0.906-1.421 1.235-0.399 0.321-0.832 0.598-1.291 0.827-0.422 0.21-0.869 0.364-1.331 0.458-0.518 0.096-1.044 0.143-1.571 0.139-0.538 0.046-1.079-0.054-1.565-0.289s-0.899-0.596-1.197-1.045c-0.578-1.077-0.818-2.301-0.69-3.516zM19.688 24.369c0.465-2.015 1.135-3.977 2.001-5.856-0.73 1.155-1.451 2.231-2.141 3.207s-1.351 1.872-2.001 2.699c0.43 0 0.831-0.050 1.201-0.050h0.941zM32.437 18.195c0.076-0.145 0.188-0.269 0.324-0.361s0.293-0.149 0.457-0.167c0.386-0.085 0.785-0.085 1.171 0 0.356 0.075 0.683 0.252 0.941 0.508 0.121 0.117 0.2 0.269 0.225 0.435s-0.005 0.335-0.085 0.482l-0.27 0.548 0.18-0.139c0.652-0.604 1.399-1.099 2.211-1.464 0.494-0.228 1.039-0.324 1.581-0.279 0.424 0.053 0.816 0.25 1.111 0.558 0.311 0.305 0.565 0.662 0.751 1.056 0.272 0.654 0.272 1.388 0 2.042-0.32 0.877-0.711 1.726-1.171 2.54-0.34 0.677-0.691 1.305-1.061 1.902s-0.73 1.215-1.101 1.852c-0.142 0.196-0.228 0.427-0.25 0.667 0 0.11 0.090 0.139 0.23 0.11 0.168-0.047 0.329-0.114 0.48-0.199 0.174-0.106 0.341-0.222 0.5-0.349 0.71-0.544 1.379-1.14 2.001-1.783 0.566-0.565 1.097-1.164 1.591-1.793 0.080-0.136 0.194-0.25 0.33-0.33s0.292-0.124 0.45-0.128c0.301-0.024 0.603 0.038 0.871 0.179 0.251 0.125 0.455 0.328 0.58 0.578 0.059 0.125 0.081 0.264 0.065 0.401s-0.070 0.267-0.155 0.376c-0.16 0.179-0.36 0.448-0.62 0.797s-0.56 0.727-0.901 1.125-0.711 0.807-1.131 1.235c-0.42 0.428-0.831 0.827-1.261 1.195-0.658 0.617-1.411 1.125-2.231 1.504-0.548 0.255-1.146 0.388-1.751 0.388-0.457 0.005-0.902-0.146-1.261-0.428-0.335-0.269-0.605-0.609-0.791-0.996-0.29-0.626-0.329-1.338-0.11-1.992 0.291-0.898 0.67-1.765 1.131-2.589 0.12-0.239 0.27-0.528 0.46-0.866s0.37-0.677 0.57-0.996c0.2-0.319 0.38-0.687 0.55-0.996 0.143-0.276 0.303-0.542 0.48-0.797 0.19-0.339 0.26-0.558 0.23-0.667s-0.13-0.139-0.29-0.11c-0.201 0.042-0.396 0.109-0.58 0.199-0.21 0.11-0.41 0.229-0.6 0.349-0.49 0.339-1.001 0.707-1.511 1.115-0.501 0.394-0.979 0.816-1.431 1.265-0.31 0.727-0.62 1.464-0.941 2.201l-0.901 2.061c-0.28 0.637-0.51 1.185-0.71 1.643s-0.35 0.777-0.44 0.996c-0.094 0.202-0.233 0.381-0.407 0.522s-0.376 0.242-0.594 0.295c-0.426 0.135-0.884 0.135-1.311 0-0.403-0.127-0.741-0.406-0.941-0.777-0.107-0.229-0.155-0.481-0.14-0.733s0.095-0.497 0.23-0.711c0.27-0.608 0.65-1.414 1.121-2.4s1.001-1.992 1.481-3.117l1.471-3.187c0.42-1.165 0.831-2.042 1.171-2.779v0.010zM49.958 17.049l-3.823 6.673c-0.33 0.608-0.66 1.195-1.001 1.743-0.296 0.487-0.56 0.993-0.791 1.514-0.168 0.377-0.306 0.766-0.41 1.165-0.080 0.319-0.040 0.538 0.12 0.657 0.087 0.081 0.196 0.135 0.313 0.156s0.238 0.008 0.348-0.037c0.329-0.094 0.64-0.242 0.921-0.438 0.32-0.209 0.65-0.458 1.001-0.727s0.64-0.548 0.921-0.827l1.291-1.305c0.376-0.403 0.73-0.825 1.061-1.265 0.079-0.128 0.189-0.235 0.32-0.31s0.279-0.116 0.43-0.119c0.311-0.024 0.623 0.038 0.901 0.179 0.261 0.118 0.473 0.322 0.6 0.578 0.058 0.128 0.076 0.271 0.051 0.41s-0.092 0.267-0.191 0.367c-0.31 0.398-0.72 0.896-1.241 1.514s-1.181 1.305-2.001 2.101c-0.52 0.488-1.001 0.906-1.421 1.235-0.399 0.321-0.832 0.598-1.291 0.827-0.422 0.21-0.869 0.364-1.331 0.458-0.501 0.095-1.011 0.142-1.521 0.139-1.571 0-2.482-0.637-2.742-1.902s0.24-2.988 1.501-5.059c0.15-0.279 0.38-0.687 0.69-1.235s0.66-1.175 1.081-1.882l1.311-2.241c0.46-0.797 0.901-1.574 1.331-2.34-0.259 0.032-0.52 0.049-0.781 0.050h-0.831c-0.64 0-1.061-0.129-1.241-0.388-0.090-0.131-0.142-0.283-0.151-0.441s0.026-0.315 0.101-0.455c0.193-0.371 0.479-0.687 0.831-0.916 0.393-0.271 0.854-0.429 1.331-0.458h1.001c0.4 0 0.841 0 1.331 0l1.001-1.653c0.229-0.413 0.609-0.723 1.061-0.866 0.391-0.122 0.81-0.122 1.201 0 0.336 0.098 0.622 0.318 0.801 0.617 0.079 0.157 0.115 0.331 0.104 0.506s-0.067 0.344-0.164 0.49l-0.46 0.777h1.281c0.333 0.025 0.668 0.025 1.001 0 0.46 0 0.731 0.139 0.831 0.398 0.044 0.143 0.057 0.294 0.040 0.444s-0.065 0.293-0.14 0.423c-0.175 0.354-0.424 0.666-0.731 0.916-0.304 0.276-0.699 0.432-1.111 0.438l-2.732 0.090zM64.508 24.369c0.090-0.129 0.209-0.235 0.349-0.31s0.294-0.115 0.452-0.118c0.311-0.022 0.622 0.040 0.901 0.179 0.257 0.125 0.467 0.327 0.6 0.578 0.057 0.129 0.074 0.271 0.049 0.41s-0.091 0.266-0.189 0.367c-0.16 0.179-0.36 0.448-0.62 0.797s-0.57 0.727-0.921 1.125l-1.081 1.225c-0.391 0.421-0.805 0.82-1.241 1.195-0.653 0.614-1.399 1.122-2.212 1.504-0.53 0.254-1.113 0.38-1.701 0.369-0.453-0.015-0.888-0.176-1.241-0.458-0.342-0.284-0.635-0.62-0.871-0.996l-1.591 0.996c-0.792 0.387-1.671 0.562-2.552 0.508-0.729 0.016-1.447-0.174-2.071-0.548-0.588-0.37-1.040-0.918-1.291-1.564-0.29-0.765-0.386-1.589-0.28-2.4 0.14-1.075 0.494-2.111 1.041-3.048 0.549-1.052 1.254-2.015 2.091-2.858 0.747-0.749 1.572-1.417 2.462-1.992 0.754-0.485 1.568-0.869 2.422-1.145 0.645-0.222 1.319-0.346 2.001-0.369 0.34-0.004 0.679 0.050 1.001 0.159 0.279 0.103 0.547 0.233 0.801 0.388 0.252 0.154 0.483 0.338 0.69 0.548 0.197-0.37 0.525-0.654 0.921-0.797 0.401-0.169 0.838-0.234 1.271-0.189 0.339 0.029 0.654 0.185 0.881 0.438 0.19 0.249 0.17 0.578-0.070 0.996l-0.921 1.813c-0.37 0.717-0.75 1.454-1.151 2.201l-1.131 2.101c-0.259 0.485-0.543 0.957-0.851 1.414-0.147 0.206-0.221 0.455-0.21 0.707 0 0.139 0.18 0.199 0.39 0.189 0.263-0.032 0.515-0.12 0.74-0.259 0.307-0.17 0.587-0.385 0.831-0.637 0.52-0.548 0.941-0.996 1.261-1.305 0.381-0.378 0.729-0.788 1.041-1.225v0.010zM57.744 25.644c0.437-0.538 0.812-1.123 1.121-1.743 0.264-0.528 0.482-1.078 0.65-1.643 0.132-0.436 0.186-0.89 0.16-1.344-0.003-0.163-0.042-0.324-0.115-0.47s-0.177-0.275-0.305-0.376c-0.137-0.091-0.291-0.152-0.453-0.179s-0.328-0.021-0.487 0.020c-0.442 0.101-0.862 0.279-1.241 0.528-0.495 0.319-0.958 0.686-1.381 1.096-0.502 0.489-0.97 1.012-1.401 1.564-0.434 0.568-0.819 1.171-1.151 1.803-0.282 0.515-0.506 1.060-0.67 1.623-0.13 0.432-0.177 0.885-0.14 1.334 0.011 0.164 0.056 0.323 0.132 0.469s0.181 0.274 0.309 0.378c0.128 0.094 0.275 0.159 0.43 0.19s0.316 0.027 0.47-0.010c0.447-0.087 0.875-0.256 1.261-0.498 0.508-0.315 0.977-0.686 1.401-1.105 0.516-0.503 0.988-1.050 1.411-1.633zM64.508 24.359c0.725-0.832 1.393-1.71 2.001-2.629 0.701-1.056 1.351-1.992 1.931-2.908-0.389-0.498-0.678-1.066-0.851-1.673-0.2-0.646-0.308-1.316-0.32-1.992-0.020-0.643 0.064-1.286 0.25-1.902 0.178-0.569 0.527-1.069 1.001-1.434 0.54-0.468 1.217-0.751 1.931-0.807 0.56-0.025 1.112 0.144 1.561 0.478 0.44 0.382 0.751 0.89 0.891 1.454 0.202 0.61 0.243 1.262 0.12 1.892-0.089 0.477-0.244 0.94-0.46 1.374-0.25 0.528-0.54 1.086-0.871 1.703 0.409 0.090 0.832 0.090 1.241 0 0.411-0.099 0.842-0.078 1.241 0.060 0.31 0.115 0.581 0.315 0.78 0.578 0.183 0.225 0.282 0.507 0.28 0.797 0.003 0.132-0.020 0.263-0.068 0.387s-0.12 0.235-0.213 0.331c-0.12 0.119-0.37 0.398-0.73 0.817s-0.791 0.946-1.271 1.534c-0.48 0.588-1.001 1.235-1.451 1.902-0.453 0.619-0.874 1.26-1.261 1.922-0.314 0.517-0.576 1.064-0.78 1.633-0.17 0.468-0.15 0.787 0.060 0.936 0.204 0.152 0.45 0.24 0.705 0.253s0.508-0.051 0.726-0.183c0.692-0.286 1.342-0.665 1.931-1.125 0.707-0.516 1.376-1.082 2.001-1.693 0.555-0.525 1.076-1.084 1.561-1.673 0.102-0.115 0.227-0.209 0.366-0.276s0.29-0.105 0.445-0.113c0.299-0.016 0.597 0.039 0.871 0.159 0.25 0.118 0.454 0.314 0.58 0.558 0.057 0.129 0.074 0.271 0.049 0.41s-0.091 0.266-0.189 0.367c-0.61 0.802-1.279 1.557-2.001 2.261-0.845 0.88-1.785 1.665-2.802 2.34-0.965 0.658-2.029 1.159-3.152 1.484-0.493 0.158-1.013 0.215-1.528 0.169s-1.017-0.195-1.474-0.438c-0.371-0.166-0.691-0.428-0.925-0.759s-0.374-0.719-0.405-1.123c-0.082-0.947 0.076-1.899 0.46-2.769 0.435-1.065 1.006-2.069 1.701-2.988 0.684-0.954 1.488-1.818 2.392-2.57 0.157-0.115 0.29-0.261 0.39-0.428 0-0.080-0.3-0.239-0.941-0.488-0.77 1.195-1.511 2.291-2.231 3.296s-1.211 1.683-1.451 1.992c-0.097 0.138-0.224 0.252-0.371 0.335s-0.311 0.132-0.48 0.143c-0.299 0.026-0.598-0.047-0.851-0.209-0.24-0.143-0.426-0.36-0.53-0.617-0.051-0.128-0.065-0.268-0.040-0.403s0.087-0.262 0.18-0.363zM70.402 13.325c-0.114-0.004-0.228 0.022-0.329 0.074s-0.188 0.13-0.251 0.225c-0.148 0.235-0.24 0.501-0.27 0.777-0.050 0.33-0.050 0.666 0 0.996 0.060 0.371 0.185 0.728 0.37 1.056 0.18-0.369 0.35-0.737 0.5-1.105 0.141-0.321 0.252-0.654 0.33-0.996 0.061-0.249 0.061-0.508 0-0.757-0.023-0.076-0.069-0.142-0.132-0.19s-0.139-0.076-0.218-0.079zM84.151 17.040l-3.823 6.682c-0.34 0.608-0.67 1.195-1.001 1.743-0.289 0.489-0.55 0.995-0.78 1.514-0.173 0.375-0.31 0.765-0.41 1.165-0.080 0.319 0 0.538 0.11 0.657 0.089 0.081 0.199 0.135 0.318 0.156s0.241 0.008 0.353-0.036c0.329-0.094 0.64-0.242 0.921-0.438 0.32-0.209 0.65-0.458 1.001-0.727s0.64-0.548 0.921-0.827c0.55-0.548 1.001-0.996 1.281-1.305 0.365-0.401 0.706-0.824 1.021-1.265 0.082-0.139 0.199-0.255 0.339-0.335s0.299-0.123 0.461-0.123c0.311-0.022 0.622 0.040 0.901 0.179 0.257 0.125 0.467 0.327 0.6 0.578 0.057 0.129 0.074 0.271 0.049 0.41s-0.091 0.266-0.189 0.367c-0.31 0.398-0.72 0.896-1.241 1.514s-1.181 1.305-2.001 2.101c-0.52 0.488-1.001 0.906-1.431 1.235-0.398 0.318-0.827 0.595-1.281 0.827-0.425 0.21-0.876 0.364-1.341 0.458-0.501 0.095-1.011 0.142-1.521 0.139-1.561 0-2.472-0.637-2.732-1.902s0.24-2.988 1.491-5.059c0.16-0.279 0.39-0.687 0.691-1.235l1.081-1.882c0.42-0.697 0.85-1.444 1.311-2.241s0.911-1.574 1.341-2.34c-0.259 0.032-0.52 0.049-0.781 0.050h-0.831c-0.65 0-1.061-0.129-1.241-0.388-0.084-0.134-0.129-0.29-0.129-0.448s0.045-0.314 0.129-0.448c0.19-0.374 0.477-0.69 0.831-0.916 0.393-0.271 0.854-0.429 1.331-0.458h1.001c0.4 0 0.841 0 1.331 0l1.001-1.653c0.226-0.39 0.585-0.686 1.011-0.837 0.391-0.122 0.81-0.122 1.201 0 0.333 0.104 0.617 0.323 0.801 0.617 0.077 0.157 0.112 0.332 0.099 0.507s-0.071 0.343-0.169 0.489l-0.46 0.777h1.29c0.334 0.025 0.668 0.025 1.001 0 0.461 0 0.731 0.139 0.821 0.398 0.046 0.143 0.061 0.293 0.047 0.443s-0.062 0.293-0.137 0.424c-0.178 0.352-0.426 0.664-0.731 0.916-0.316 0.273-0.722 0.418-1.141 0.408l-2.711 0.11zM91.797 24.359c0.079-0.128 0.189-0.235 0.32-0.31s0.279-0.116 0.43-0.119c0.311-0.024 0.623 0.038 0.901 0.179 0.26 0.118 0.472 0.322 0.6 0.578 0.058 0.128 0.076 0.271 0.051 0.41s-0.092 0.267-0.191 0.367c-0.311 0.398-0.711 0.896-1.221 1.514-0.626 0.737-1.295 1.439-2.001 2.101-0.52 0.488-1.001 0.906-1.421 1.235-0.4 0.321-0.832 0.598-1.29 0.827-0.422 0.21-0.869 0.364-1.331 0.458-0.501 0.095-1.011 0.142-1.521 0.139-1.571 0-2.482-0.637-2.742-1.902s0.24-2.988 1.501-5.059c0.27-0.458 0.56-0.996 0.871-1.534s0.62-1.125 0.941-1.673l0.92-1.554c0.291-0.488 0.551-0.906 0.761-1.245 0.234-0.404 0.613-0.706 1.060-0.847 0.381-0.12 0.79-0.12 1.171 0 0.333 0.108 0.618 0.326 0.81 0.617 0.080 0.158 0.114 0.336 0.097 0.513s-0.087 0.344-0.197 0.483c-0.33 0.588-0.72 1.265-1.15 2.042l-1.101 2.141c-0.33 0.608-0.661 1.195-1.001 1.743-0.297 0.487-0.56 0.993-0.791 1.514-0.169 0.377-0.306 0.766-0.41 1.165-0.080 0.319-0.040 0.538 0.12 0.657 0.087 0.081 0.196 0.135 0.313 0.156s0.238 0.008 0.348-0.037c0.355-0.092 0.693-0.24 1.001-0.438 0.346-0.225 0.68-0.468 1.001-0.727 0.33-0.279 0.64-0.548 0.92-0.827l1.241-1.305c0.352-0.404 0.682-0.826 0.991-1.265zM93.678 14.151c-0.169 0.287-0.374 0.552-0.611 0.787-0.188 0.192-0.385 0.375-0.591 0.548-0.386 0.235-0.809 0.404-1.251 0.498-0.352 0.094-0.721 0.111-1.081 0.050-0.13-0.018-0.253-0.070-0.356-0.151s-0.184-0.186-0.234-0.308c-0.11-0.239 0-0.578 0.25-0.996 0.125-0.243 0.261-0.479 0.41-0.707 0.19-0.289 0.35-0.558 0.511-0.807 0.11-0.175 0.256-0.324 0.429-0.439s0.367-0.193 0.572-0.228c0.4-0.073 0.811-0.049 1.2 0.070 0.343 0.11 0.635 0.34 0.821 0.647 0.085 0.162 0.124 0.345 0.111 0.528s-0.074 0.358-0.181 0.508zM92.167 23.493c0.546-0.977 1.219-1.877 2.001-2.679 0.743-0.732 1.578-1.368 2.481-1.892 0.793-0.468 1.67-0.779 2.582-0.916 0.811-0.121 1.64-0.043 2.412 0.229 0.284 0.084 0.539 0.243 0.739 0.46s0.335 0.486 0.392 0.775c0.067 0.6-0.022 1.207-0.26 1.763-0.237 0.646-0.575 1.251-1.001 1.793-0.374 0.474-0.793 0.911-1.251 1.305-0.273 0.247-0.632 0.379-1.001 0.368-0.329-0.023-0.643-0.145-0.9-0.349-0.231-0.184-0.404-0.429-0.501-0.707-0.048-0.119-0.056-0.249-0.023-0.373s0.104-0.234 0.203-0.314l0.781-0.777c0.284-0.28 0.547-0.58 0.79-0.896 0.172-0.213 0.296-0.461 0.36-0.727 0-0.199-0.099-0.299-0.41-0.299-0.377 0.019-0.743 0.136-1.060 0.339-0.455 0.278-0.872 0.613-1.241 0.996-0.467 0.448-0.899 0.93-1.291 1.444-0.444 0.562-0.841 1.158-1.191 1.783-0.421 0.654-0.624 1.425-0.58 2.201 0.026 0.29 0.111 0.571 0.25 0.826s0.33 0.479 0.561 0.658c0.525 0.326 1.148 0.46 1.761 0.378 0.92-0.104 1.802-0.424 2.572-0.936 0.397-0.238 0.781-0.498 1.15-0.777 0.4-0.309 0.781-0.627 1.151-0.996s0.71-0.667 1.001-0.996c0.278-0.282 0.539-0.582 0.78-0.896 0.080-0.126 0.188-0.231 0.317-0.306s0.275-0.117 0.425-0.122c0.291-0.019 0.585 0.035 0.85 0.159 0.254 0.115 0.46 0.316 0.58 0.568 0.060 0.131 0.082 0.275 0.064 0.417s-0.074 0.277-0.164 0.389c-0.225 0.326-0.469 0.638-0.73 0.936-0.311 0.349-0.661 0.727-1.061 1.125s-0.82 0.787-1.261 1.185c-0.44 0.398-0.9 0.767-1.36 1.105-0.813 0.657-1.743 1.153-2.742 1.464-0.857 0.258-1.747 0.389-2.642 0.388-0.757 0.001-1.507-0.141-2.211-0.418-0.556-0.198-1.046-0.542-1.421-0.996-0.375-0.461-0.636-1.003-0.76-1.583-0.127-0.558-0.171-1.132-0.131-1.703 0.041-0.604 0.149-1.202 0.32-1.783 0.159-0.562 0.385-1.104 0.671-1.613zM118.024 24.359c0.090-0.129 0.209-0.235 0.349-0.31s0.294-0.115 0.452-0.119c0.311-0.023 0.623 0.039 0.9 0.179 0.26 0.118 0.472 0.322 0.6 0.578 0.057 0.129 0.074 0.271 0.049 0.41s-0.091 0.266-0.189 0.367c-0.15 0.179-0.36 0.448-0.62 0.797s-0.57 0.727-0.92 1.125c-0.35 0.398-0.731 0.807-1.131 1.235-0.391 0.421-0.805 0.82-1.24 1.195-0.648 0.612-1.387 1.12-2.192 1.504-0.531 0.254-1.113 0.38-1.701 0.369-0.452-0.015-0.888-0.176-1.241-0.458-0.342-0.284-0.636-0.62-0.871-0.996l-1.591 0.996c-0.792 0.387-1.672 0.562-2.552 0.508-0.728 0.016-1.447-0.174-2.071-0.548-0.585-0.373-1.038-0.92-1.29-1.564-0.286-0.766-0.38-1.59-0.271-2.4 0.122-1.073 0.464-2.11 1.001-3.048 0.553-1.052 1.261-2.016 2.102-2.858 0.743-0.754 1.568-1.422 2.461-1.992 0.75-0.486 1.56-0.871 2.412-1.145 0.644-0.222 1.319-0.346 2.001-0.369 0.34-0.005 0.678 0.049 1.001 0.159 0.281 0.105 0.553 0.235 0.81 0.388 0.287 0.156 0.555 0.343 0.801 0.558 0.195-0.372 0.523-0.656 0.92-0.797 0.381-0.161 0.797-0.226 1.211-0.189 0.339 0.027 0.656 0.184 0.88 0.438 0.201 0.249 0.17 0.578-0.070 0.996s-0.55 1.096-0.92 1.813-0.751 1.454-1.151 2.201c-0.4 0.747-0.771 1.444-1.13 2.101-0.254 0.498-0.539 0.98-0.851 1.444-0.18 0.339-0.25 0.568-0.2 0.707s0.17 0.199 0.39 0.189c0.259-0.032 0.509-0.121 0.731-0.259 0.307-0.171 0.586-0.385 0.83-0.637 0.521-0.548 0.941-0.996 1.261-1.305 0.387-0.388 0.734-0.812 1.040-1.265zM111.26 25.644c0.829-1.003 1.448-2.161 1.821-3.406 0.13-0.432 0.183-0.884 0.16-1.335-0.004-0.162-0.042-0.321-0.113-0.467s-0.172-0.275-0.297-0.379c-0.144-0.098-0.309-0.163-0.482-0.191s-0.35-0.017-0.519 0.032c-0.441 0.102-0.861 0.281-1.24 0.528-0.496 0.319-0.958 0.686-1.381 1.096-0.499 0.492-0.967 1.014-1.401 1.564-0.43 0.573-0.816 1.179-1.151 1.813-0.282 0.515-0.506 1.060-0.67 1.623-0.127 0.433-0.171 0.885-0.13 1.334 0.009 0.163 0.052 0.322 0.126 0.468s0.178 0.275 0.304 0.379c0.128 0.093 0.276 0.157 0.431 0.188s0.317 0.028 0.471-0.008c0.447-0.087 0.874-0.256 1.261-0.498 0.509-0.317 0.982-0.687 1.411-1.105 0.51-0.506 0.979-1.052 1.401-1.633z"></path>
</svg>
