<!-- Generated by IcoMoon.io -->
<svg version="1.1" xmlns="http://www.w3.org/2000/svg" width="125" height="32" viewBox="0 0 125 32">
<path d="M28.675 25.78c-1.651 1.89-3.685 3.413-5.967 4.469s-4.763 1.622-7.28 1.661c-9.267 0-15.428-5.91-15.428-15.61 0-10 7.558-16 13.287-16 1.281-0.067 2.56 0.17 3.731 0.692s2.2 1.313 3.003 2.308l1.005-2.43h6.865v12.3h-7.789c-0.131-2.82-1.528-5.47-4.634-5.47s-5.196 3.87-5.196 8.6c0 4.31 2.231 8.18 6.382 8.18 3.669 0 6.553-3.83 6.945-4.26l5.076 5.56zM44.596 0.83v5.74h-2.714v6.56h8.302v-6.56h-2.573v-5.74h14.202v5.74h-2.513v18.91h2.513v5.74h-14.202v-5.74h2.573v-6.57h-8.302v6.57h2.714v5.74h-14.172v-5.74h2.412v-18.91h-2.412v-5.74h14.172zM63.562 15.83c0-9.35 6.302-15.83 15.348-15.83 10.715 0 15.7 6.39 15.7 16.17s-5.518 15.83-15.398 15.83c-9.136 0-15.649-5.26-15.649-16.13v-0.040zM83.664 16.13c0-5.26-1.437-9.47-4.804-9.47-2.674 0-4.503 3.78-4.503 9.17 0 5.7 2.010 9.3 4.845 9.3s4.473-3.56 4.473-8.96l-0.010-0.040zM124.632 25.78c-1.651 1.89-3.685 3.413-5.967 4.469s-4.763 1.622-7.28 1.661c-9.267 0-15.428-5.91-15.428-15.61 0-10 7.559-16 13.288-16 1.282-0.067 2.56 0.17 3.731 0.692s2.2 1.313 3.004 2.308l1.005-2.43h6.865v12.3h-7.83c-0.131-2.82-1.528-5.47-4.633-5.47s-5.197 3.87-5.197 8.6c0 4.31 2.232 8.18 6.382 8.18 3.669 0 6.553-3.83 6.946-4.26l5.116 5.56z"></path>
</svg>
