<!-- Generated by IcoMoon.io -->
<svg version="1.1" xmlns="http://www.w3.org/2000/svg" width="130" height="32" viewBox="0 0 130 32">
<path d="M89.71 23.050c1.31 0.017 2.611-0.236 3.818-0.743 1.19-0.532 2.332-1.163 3.413-1.889l5.343 6.999c-0.845 0.784-1.804 1.438-2.843 1.941-1.064 0.506-2.176 0.904-3.32 1.187-1.207 0.302-2.435 0.512-3.672 0.63-1.267 0.114-2.552 0.175-3.891 0.175-1.352-0.001-2.702-0.070-4.046-0.206-1.328-0.134-2.584-0.31-3.766-0.547-1.104-0.211-2.195-0.483-3.268-0.816-0.877-0.275-1.731-0.62-2.552-1.032l9.638-19.303h-7.189v-8.95h22.067l-10.531 22.555h0.799zM119.009 12.532c-0.285-0.667-0.709-1.265-1.245-1.755-0.544-0.51-1.181-0.913-1.878-1.187-0.717-0.3-1.489-0.454-2.267-0.454s-1.549 0.154-2.266 0.454c-1.382 0.542-2.498 1.597-3.112 2.942-0.315 0.672-0.477 1.405-0.477 2.147s0.163 1.475 0.477 2.147c0.615 1.345 1.731 2.4 3.112 2.942 0.717 0.3 1.488 0.454 2.266 0.454s1.549-0.154 2.267-0.454c0.696-0.274 1.334-0.677 1.878-1.187 0.536-0.49 0.961-1.088 1.245-1.755 0.301-0.676 0.456-1.408 0.456-2.147s-0.156-1.471-0.456-2.147zM127.827 20.511c-0.795 1.762-1.922 3.357-3.32 4.697-1.429 1.36-3.11 2.433-4.948 3.159-3.892 1.517-8.216 1.517-12.108 0-3.667-1.456-6.62-4.273-8.237-7.855-0.807-1.811-1.224-3.769-1.224-5.75s0.417-3.939 1.224-5.75c0.793-1.76 1.921-3.351 3.32-4.686 1.432-1.342 3.099-2.412 4.917-3.159 3.885-1.555 8.223-1.555 12.108 0 1.827 0.742 3.501 1.813 4.938 3.159 1.403 1.332 2.531 2.924 3.32 4.686 0.808 1.81 1.224 3.769 1.224 5.75s-0.417 3.939-1.224 5.75h0.011zM68.193 9.445v19.613h-9.389v-19.613h-5.789v-8.95h20.915v8.95h-5.737zM42.184 9.59c-0.207-0.212-0.456-0.378-0.731-0.49s-0.57-0.166-0.867-0.16h-1.452v4.377h1.452c0.297 0.006 0.592-0.048 0.867-0.16s0.524-0.279 0.731-0.49c0.21-0.2 0.376-0.441 0.49-0.707s0.173-0.552 0.173-0.841c0-0.289-0.059-0.575-0.173-0.842s-0.281-0.506-0.49-0.707v0.021zM48.678 19.024l6.536 9.982h-10.084c-1.459-2.064-2.594-3.613-3.403-4.645-0.539-0.722-1.121-1.411-1.743-2.064-0.363-0.351-0.581-0.465-0.643-0.351-0.069 0.112-0.105 0.241-0.104 0.372v6.689h-9.337v-28.511h11.433c1.382 0.002 2.746 0.308 3.994 0.898 1.252 0.565 2.389 1.356 3.351 2.333 1.033 0.994 1.855 2.184 2.417 3.499 0.525 1.27 0.789 2.632 0.778 4.005-0.003 1.416-0.281 2.818-0.82 4.129-0.547 1.363-1.353 2.607-2.376 3.664zM14.379 11.572l-1.598 6.111h3.112l-1.515-6.111zM19.224 29.006l-0.903-3.272h-7.947l-0.892 3.272h-9.483l9.234-28.511h10.24l9.234 28.511h-9.482z"></path>
</svg>
